<?xml version="1.0" encoding="UTF-8"?>
<svg id="Capa_1" data-name="Capa 1" xmlns="http://www.w3.org/2000/svg" xmlns:xlink="http://www.w3.org/1999/xlink" viewBox="0 0 792 612">
  <defs>
    <style>
      .cls-1 {
        fill: url(#linear-gradient-2);
      }

      .cls-2 {
        fill: url(#linear-gradient-4);
      }

      .cls-3 {
        fill: url(#linear-gradient-3);
      }

      .cls-4 {
        fill: url(#linear-gradient-5);
      }

      .cls-5 {
        fill: url(#linear-gradient-8);
      }

      .cls-6 {
        fill: url(#linear-gradient-7);
      }

      .cls-7 {
        fill: url(#linear-gradient-9);
      }

      .cls-8 {
        fill: url(#linear-gradient-6);
      }

      .cls-9 {
        fill: #e7633b;
      }

      .cls-10 {
        fill: url(#linear-gradient);
      }
    </style>
    <linearGradient id="linear-gradient" x1="114.5" y1="439.35" x2="114.5" y2="280.86" gradientUnits="userSpaceOnUse">
      <stop offset="0" stop-color="#e7633b"/>
      <stop offset=".32" stop-color="#e6603d"/>
      <stop offset=".55" stop-color="#e55946"/>
      <stop offset=".74" stop-color="#e34d56"/>
      <stop offset=".91" stop-color="#e03b6b"/>
      <stop offset="1" stop-color="#de307a"/>
    </linearGradient>
    <linearGradient id="linear-gradient-2" x1="293.2" y1="442.46" x2="293.2" xlink:href="#linear-gradient"/>
    <linearGradient id="linear-gradient-3" x1="433.05" x2="433.05" xlink:href="#linear-gradient"/>
    <linearGradient id="linear-gradient-4" x1="572.9" x2="572.9" xlink:href="#linear-gradient"/>
    <linearGradient id="linear-gradient-5" x1="712.75" y1="501.51" x2="712.75" y2="283.96" xlink:href="#linear-gradient"/>
    <linearGradient id="linear-gradient-6" x1="373.94" y1="158.29" x2="573.77" y2="158.29" xlink:href="#linear-gradient"/>
    <linearGradient id="linear-gradient-7" x1="455.14" y1="205.41" x2="544.61" y2="205.41" xlink:href="#linear-gradient"/>
    <linearGradient id="linear-gradient-8" x1="454.42" y1="154.66" x2="470.4" y2="154.66" xlink:href="#linear-gradient"/>
    <linearGradient id="linear-gradient-9" x1="525.99" y1="154.66" x2="541.97" y2="154.66" xlink:href="#linear-gradient"/>
  </defs>
  <g>
    <path class="cls-10" d="M60.12,332.13v107.22H13.5v-155.39h46.62v7.77c0-7.15,10.36-10.77,31.08-10.88,12.22,0,22.07,2.02,29.52,6.06,8.8-4.04,19.68-6.06,32.63-6.06,41.44,0,62.16,20.72,62.16,62.16v96.34h-46.62v-102.56c0-10.36-5.18-15.54-15.54-15.54s-15.54,5.18-15.54,15.54v102.56h-46.62v-105.67c0-8.29-5.18-12.43-15.54-12.43s-15.54,3.63-15.54,10.88Z"/>
    <path class="cls-1" d="M308.74,346.12v-9.32c0-10.36-5.18-15.54-15.54-15.54-7.98,0-12.9,3.11-14.76,9.32h-46.77c3.94-33.15,24.45-49.72,61.53-49.72,41.44,0,62.16,20.72,62.16,62.16v96.34h-46.62v-6.22c0,6.22-10.36,9.33-31.08,9.33-31.08,0-46.62-12.95-46.62-38.85v-18.65c0-25.9,15.54-38.85,46.62-38.85h31.08ZM277.66,389.63c0,8.29,5.18,12.43,15.54,12.43s15.54-3.62,15.54-10.88v-13.98h-15.54c-10.36,0-15.54,4.14-15.54,12.43Z"/>
    <path class="cls-3" d="M417.51,332.13v107.22h-46.62v-155.39h46.62v7.77c0-7.15,10.36-10.77,31.08-10.88,31.08,0,46.62,12.95,46.62,38.85v119.65h-46.62v-105.67c0-8.29-5.18-12.43-15.54-12.43s-15.54,3.63-15.54,10.88Z"/>
    <path class="cls-2" d="M557.36,332.13v107.22h-46.62v-155.39h46.62v7.77c0-7.15,10.36-10.77,31.08-10.88,31.08,0,46.62,12.95,46.62,38.85v119.65h-46.62v-105.67c0-8.29-5.18-12.43-15.54-12.43s-15.54,3.63-15.54,10.88Z"/>
    <path class="cls-4" d="M728.29,283.96h46.62v155.39c0,41.43-20.72,62.16-62.16,62.16-37.09,0-57.6-16.57-61.53-49.72h46.77c1.86,6.21,6.79,9.32,14.76,9.32,10.36,0,15.54-5.18,15.54-15.54v-14.14c0,7.15-10.36,10.77-31.08,10.88-31.08,0-46.62-12.95-46.62-38.85v-119.49h46.62v105.51c0,8.29,5.18,12.43,15.54,12.43s15.54-3.62,15.54-10.88v-107.06Z"/>
  </g>
  <g>
    <path class="cls-9" d="M10.33,501l.91-4.83c2.91,1.34,5.44,2.01,7.6,2.01,1.47,0,2.58-.34,3.33-1.03.72-.64,1.08-1.44,1.08-2.42,0-.87-.31-1.56-.93-2.08-.65-.54-2.05-1.24-4.19-2.11-2.11-.86-3.44-1.45-3.99-1.76-1.45-.82-2.47-1.76-3.04-2.82-.47-.88-.71-1.94-.71-3.19,0-2.83,1-4.98,2.99-6.47,1.7-1.26,3.97-1.89,6.81-1.89,2.53,0,5.26.51,8.18,1.54l-1.23,4.7c-2.76-1.24-5.03-1.86-6.81-1.86-1.16,0-2.11.28-2.84.83-.69.54-1.03,1.25-1.03,2.13,0,.73.3,1.37.91,1.91.67.57,1.95,1.23,3.85,1.99,2.12.85,3.54,1.47,4.24,1.86,1.53.85,2.6,1.87,3.19,3.06.49,1,.74,2.16.74,3.48,0,2.89-1,5.08-2.99,6.57-1.72,1.29-4.11,1.93-7.18,1.93s-5.93-.52-8.87-1.57Z"/>
    <path class="cls-9" d="M57.61,474.41c4.33,0,7.64,1.37,9.92,4.12,2.14,2.55,3.21,5.86,3.21,9.95,0,4.49-1.27,8.04-3.8,10.63-2.25,2.3-5.42,3.45-9.51,3.45-4.41,0-7.77-1.37-10.07-4.12-2.14-2.55-3.21-5.87-3.21-9.97,0-4.49,1.27-8.03,3.8-10.61,2.25-2.3,5.47-3.45,9.65-3.45ZM57.36,478.8c-2.3,0-4.1.96-5.39,2.87-1.18,1.73-1.76,4.01-1.76,6.84,0,3.09.7,5.51,2.11,7.28,1.27,1.6,2.99,2.4,5.15,2.4,2.34,0,4.16-.96,5.46-2.87,1.18-1.73,1.76-4.01,1.76-6.84,0-3.1-.7-5.53-2.11-7.28-1.27-1.6-3.01-2.4-5.22-2.4Z"/>
    <path class="cls-9" d="M92.32,502v-11.37l-10.78-15.68h6.79l5.29,7.94c.74,1.09,1.32,2.02,1.76,2.77.52-.91,1.14-1.9,1.86-2.96l5.15-7.74h6.49l-10.73,15.68v11.37h-5.83Z"/>
    <path class="cls-9" d="M149.61,502v-22.47h-8.13v-4.58h22.22v4.58h-8.26v22.47h-5.83Z"/>
    <path class="cls-9" d="M178.04,474.95h5.83v16.07c0,2.71.36,4.52,1.08,5.44.88,1.14,2.35,1.72,4.41,1.72,2.29,0,3.84-.69,4.66-2.08.55-.91.83-2.6.83-5.07v-16.07h5.83v14.92c0,3.17-.13,5.31-.39,6.42-1,4.18-4.64,6.27-10.93,6.27-4.84,0-8.11-1.25-9.83-3.75-.78-1.13-1.25-2.72-1.4-4.78-.07-1.01-.1-2.4-.1-4.16v-14.92Z"/>
    <path class="cls-9" d="M241.46,502v-27.05h7.57c2.43,0,4.34.15,5.73.44,2.09.43,3.66,1.44,4.7,3.04.85,1.29,1.27,2.91,1.27,4.85,0,3.12-1.13,5.42-3.38,6.88-1.13.73-2.57,1.21-4.34,1.42-1.05.11-2.2.17-3.45.17h-2.45v10.24h-5.66ZM247.04,487.5h1.89c2.03,0,3.45-.22,4.26-.66,1.16-.64,1.74-1.81,1.74-3.53s-.53-2.78-1.59-3.41c-.77-.46-2.13-.69-4.09-.69h-2.21v8.28Z"/>
    <path class="cls-9" d="M290.03,495.22h-10.56l-2.55,6.79h-5.95l10.61-27.05h6.39l10.88,27.05h-6.27l-2.55-6.79ZM288.59,490.9l-3.82-10.9-3.82,10.9h7.64Z"/>
    <path class="cls-9" d="M313.45,502v-27.05h9.34c3.28,0,5.67.46,7.15,1.37,2.09,1.29,3.14,3.3,3.14,6.03,0,2.24-.7,3.98-2.11,5.22-.8.7-1.8,1.19-2.99,1.47.9.36,1.58.87,2.03,1.52.36.54.88,1.57,1.57,3.09l3.85,8.36h-6.15l-2.65-5.86c-.98-2.14-1.77-3.48-2.38-4.02-.69-.64-1.84-.96-3.46-.96h-1.69v10.83h-5.66ZM319.03,486.93h2.38c1.78,0,3.1-.21,3.94-.64,1.27-.62,1.91-1.72,1.91-3.31s-.57-2.57-1.71-3.16c-.8-.41-2.11-.61-3.92-.61h-2.6v7.72Z"/>
    <path class="cls-9" d="M355.02,502v-22.47h-8.13v-4.58h22.22v4.58h-8.26v22.47h-5.83Z"/>
    <path class="cls-9" d="M383.7,502v-27.05h6.84l8.6,14.33c1.31,2.17,2.26,3.94,2.87,5.32v-19.65h5.22v27.05h-6.74l-8.36-13.94c-1.27-2.07-2.34-3.95-3.21-5.61v19.55h-5.22Z"/>
    <path class="cls-9" d="M425.63,502v-27.05h17.3v4.51h-11.47v6.64h10.93v4.51h-10.93v6.89h12.1v4.51h-17.94Z"/>
    <path class="cls-9" d="M460.44,502v-27.05h9.34c3.28,0,5.67.46,7.16,1.37,2.09,1.29,3.14,3.3,3.14,6.03,0,2.24-.7,3.98-2.11,5.22-.8.7-1.8,1.19-2.99,1.47.9.36,1.58.87,2.03,1.52.36.54.88,1.57,1.57,3.09l3.85,8.36h-6.15l-2.65-5.86c-.98-2.14-1.77-3.48-2.38-4.02-.69-.64-1.84-.96-3.45-.96h-1.69v10.83h-5.66ZM466.03,486.93h2.38c1.78,0,3.09-.21,3.94-.64,1.27-.62,1.91-1.72,1.91-3.31s-.57-2.57-1.72-3.16c-.8-.41-2.11-.61-3.92-.61h-2.6v7.72Z"/>
  </g>
  <g>
    <path class="cls-8" d="M420.34,58.69v55.88h-46.4v16.14h46.4v127.16h153.43V58.69h-153.43ZM436.48,74.84h121.14v39.74h-121.14v-39.74ZM436.48,241.74v-111.02h121.14v111.02h-121.14Z"/>
    <polygon class="cls-6" points="528.47 209.99 471.29 209.99 471.29 184.69 455.14 184.69 455.14 226.13 544.61 226.13 544.61 185.24 528.47 185.24 528.47 209.99"/>
    <rect class="cls-5" x="454.42" y="146.06" width="15.98" height="17.18"/>
    <rect class="cls-7" x="525.99" y="146.06" width="15.98" height="17.18"/>
  </g>
</svg>